<svg width="16" height="13" viewBox="0 0 16 13" fill="none" xmlns="http://www.w3.org/2000/svg">
<path d="M1.1001 3.375C0.823955 3.375 0.600098 3.59886 0.600098 3.875V9.125C0.600098 9.40114 0.823955 9.625 1.1001 9.625H3.58661C3.67723 9.625 3.76615 9.64963 3.84385 9.69625L9.21785 12.9207C9.55111 13.1206 9.9751 12.8806 9.9751 12.4919V0.508095C9.9751 0.119448 9.55111 -0.120609 9.21785 0.0793487L3.84385 3.30375C3.76615 3.35037 3.67723 3.375 3.58661 3.375H1.1001ZM7.96783 2.2869C8.3011 2.08692 8.7251 2.32698 8.7251 2.71564V10.2838C8.7251 10.6725 8.30114 10.9125 7.96788 10.7126L4.19009 8.44624C4.11239 8.39962 4.02348 8.375 3.93287 8.375H2.3501C2.07396 8.375 1.8501 8.15114 1.8501 7.875V5.125C1.8501 4.84886 2.07396 4.625 2.3501 4.625H3.93285C4.02347 4.625 4.1124 4.60037 4.19011 4.55374L7.96783 2.2869ZM11.9713 9.66496C11.7963 9.87868 11.4774 9.8773 11.2821 9.68201L11.1055 9.50535C10.9102 9.31012 10.9135 8.99521 11.0812 8.77584C12.1041 7.43739 12.1041 5.56261 11.0812 4.22416C10.9135 4.00479 10.9102 3.68988 11.1055 3.49465L11.2821 3.31799C11.4774 3.1227 11.7963 3.12132 11.9713 3.33504C13.4726 5.16931 13.4726 7.83069 11.9713 9.66496ZM13.7452 11.4379C13.5632 11.6456 13.245 11.6449 13.0497 11.4496L12.873 11.2729C12.6778 11.0777 12.6798 10.762 12.859 10.5519C14.8432 8.22485 14.8432 4.77499 12.8589 2.44748C12.6797 2.23736 12.6777 1.92174 12.873 1.72649L13.0497 1.5498C13.2449 1.35454 13.5632 1.3538 13.7452 1.56153C16.2136 4.37965 16.2136 8.62032 13.7452 11.4379Z" fill="#EAEAEA"/>
</svg>
