<?xml version="1.0" standalone="no"?>
<!DOCTYPE svg PUBLIC "-//W3C//DTD SVG 20010904//EN"
 "http://www.w3.org/TR/2001/REC-SVG-20010904/DTD/svg10.dtd">
<svg version="1.0" xmlns="http://www.w3.org/2000/svg"
 width="992.000000pt" height="992.000000pt" viewBox="0 0 992.000000 992.000000"
 preserveAspectRatio="xMidYMid meet">
<metadata>
Created by potrace 1.14, written by Peter Selinger 2001-2017
</metadata>
<g transform="translate(0.000000,992.000000) scale(0.100000,-0.100000)"
fill="#000000" stroke="none">
<path d="M7427 8553 c-1 0 -19 -4 -39 -7 -38 -6 -138 -61 -138 -76 0 -5 -6
-15 -12 -22 -7 -7 -23 -35 -36 -61 l-22 -48 -1 -597 c0 -328 0 -604 -1 -612 0
-8 0 -44 1 -80 0 -36 0 -72 0 -80 -1 -8 -1 -44 0 -80 0 -36 0 -72 0 -80 0 -8
-1 -332 -1 -720 1 -388 0 -712 0 -720 0 -8 0 -44 1 -80 0 -36 0 -72 0 -80 -1
-8 -1 -44 0 -80 0 -36 0 -72 0 -80 -1 -8 -1 -44 0 -80 0 -36 0 -74 0 -85 -1
-27 -1 -886 0 -905 2 -50 3 -237 1 -245 -1 -5 -2 -14 -1 -20 2 -14 2 -370 0
-381 -1 -5 0 -13 1 -19 4 -24 2 -206 -3 -211 -3 -3 -3 -12 -1 -18 9 -22 9
-386 1 -386 -5 0 -5 -5 -1 -11 3 -6 6 -261 6 -567 l0 -557 34 -57 c61 -100
106 -125 244 -134 78 -6 89 -2 176 51 17 10 51 50 75 88 l44 69 -1 3266 c-1
1797 -4 3322 -7 3389 -4 94 -9 126 -21 138 -9 9 -16 22 -16 29 0 19 -79 106
-96 106 -8 0 -14 4 -14 8 0 13 -70 33 -123 35 -27 1 -49 1 -50 0z"/>
<path d="M2348 8032 c-33 -15 -135 -107 -149 -134 -6 -11 -13 -29 -15 -41 -12
-56 -22 -5434 -10 -5678 6 -133 24 -170 115 -245 64 -53 90 -62 161 -56 8 1
36 2 62 3 30 1 54 8 67 20 11 11 24 19 29 19 10 0 63 56 89 95 35 53 45 117
48 302 5 276 5 5318 0 5403 -5 83 -5 87 -24 145 -14 43 -116 149 -160 167 -39
16 -181 16 -213 0z"/>
<path d="M925 7635 c-67 -18 -129 -76 -170 -162 l-25 -52 0 -2464 0 -2463 31
-57 c59 -110 131 -157 247 -161 37 -1 85 4 107 11 60 20 129 75 162 130 l29
48 0 2495 -1 2495 -22 40 c-30 55 -71 97 -118 119 -22 10 -47 22 -56 26 -22
11 -132 8 -184 -5z"/>
<path d="M3765 7596 c-36 -15 -105 -78 -105 -95 0 -6 -4 -11 -10 -11 -5 0 -10
-6 -10 -13 0 -7 -5 -18 -12 -25 -18 -18 -19 -26 -22 -387 -2 -187 -5 -344 -6
-350 -1 -5 -1 -14 0 -20 5 -29 2 -474 -4 -484 -4 -6 -4 -11 1 -11 7 0 9 -159
3 -290 -1 -25 -1 -49 0 -55 1 -5 1 -100 0 -210 0 -110 -1 -207 0 -215 0 -8 0
-49 0 -90 0 -41 0 -102 1 -135 0 -33 0 -94 0 -135 -1 -99 -1 -165 2 -223 1
-26 -2 -47 -6 -47 -5 0 -5 -5 -1 -11 3 -6 6 -41 5 -77 -1 -37 -2 -76 -1 -87 5
-168 3 -335 -3 -335 -5 0 -6 -4 -2 -9 3 -5 5 -63 5 -128 1 -197 1 -216 3 -266
1 -26 -2 -47 -6 -47 -5 0 -5 -5 -1 -11 3 -6 6 -40 5 -75 -1 -35 -2 -71 -2 -79
0 -8 0 -44 0 -80 0 -36 0 -72 0 -80 0 -8 0 -45 0 -82 0 -38 0 -77 1 -88 5
-168 3 -335 -3 -335 -5 0 -6 -4 -2 -10 4 -7 7 -163 4 -270 0 -8 1 -61 1 -117
2 -102 2 -103 40 -160 84 -125 112 -141 237 -138 44 2 95 6 111 10 35 7 142
103 142 127 0 8 7 21 16 29 8 7 13 21 11 31 -3 10 -1 18 3 18 5 0 9 1098 10
2440 l1 2441 -21 28 c-11 16 -20 32 -20 35 0 21 -81 96 -125 117 -48 22 -193
26 -240 5z"/>
<path d="M6693 7554 c-90 -23 -166 -82 -200 -156 -15 -31 -20 -69 -23 -162 -4
-139 -5 -4359 -1 -4543 3 -102 7 -129 26 -171 30 -65 71 -103 151 -142 71 -34
125 -35 199 -4 51 21 115 66 115 81 0 6 4 13 9 15 5 2 24 35 43 73 33 70 33
72 30 195 -2 144 -2 126 1 255 1 55 -2 106 -7 113 -4 6 -5 12 0 12 5 0 8 51 7
112 -4 139 -3 85 -1 406 2 150 -1 272 -6 272 -5 0 -4 6 1 13 5 6 7 59 6 117
-4 128 -3 103 0 233 1 60 -2 111 -6 114 -4 3 -4 10 0 16 5 7 8 59 6 117 -2 58
-3 110 -3 115 0 6 1 273 3 595 1 337 -1 590 -6 598 -5 6 -6 12 -1 12 11 0 11
211 0 228 -4 7 -4 12 1 12 10 0 10 211 -1 228 -4 7 -4 12 1 12 10 0 10 211 -1
228 -4 7 -4 12 1 12 4 0 8 170 7 377 l-1 378 -36 74 c-41 83 -66 108 -151 150
-67 33 -87 35 -163 15z"/>
<path d="M4590 7310 c-19 -5 -53 -11 -74 -14 -35 -6 -89 -37 -121 -71 -25 -25
-65 -85 -58 -85 4 0 1 -5 -7 -10 -13 -8 -15 -244 -16 -2017 0 -1104 4 -2016 8
-2025 5 -10 4 -19 -2 -23 -6 -4 -8 -11 -5 -16 3 -5 8 -55 11 -111 2 -57 6
-112 9 -123 2 -11 4 -31 4 -44 2 -41 110 -128 185 -148 11 -4 53 -6 91 -6 80
-1 114 13 181 75 73 68 76 76 80 313 3 116 4 242 3 280 0 39 0 81 1 95 2 24 2
3219 0 3250 -1 8 0 29 0 45 3 56 -9 400 -15 425 -3 14 -8 39 -11 57 -7 35 -56
81 -134 125 -55 32 -85 38 -130 28z"/>
<path d="M8067 6456 c-7 -6 -28 -20 -47 -30 -41 -23 -49 -32 -92 -106 l-32
-55 2 -1220 c3 -1377 3 -1410 20 -1427 7 -7 12 -18 12 -25 0 -7 5 -13 10 -13
6 0 10 -6 10 -12 1 -32 71 -85 135 -103 17 -4 66 -7 110 -7 62 2 91 7 130 27
52 25 57 30 105 120 l29 54 1 422 c0 232 2 425 5 429 3 5 1 11 -5 15 -6 4 -8
10 -5 15 5 8 8 424 4 455 -1 6 0 15 1 20 3 13 3 217 0 230 -1 6 -2 12 -1 15 1
3 2 231 3 507 l1 501 -38 62 c-68 112 -107 133 -248 136 -60 1 -103 -3 -110
-10z"/>
<path d="M1624 6286 c-61 -29 -145 -111 -154 -151 -1 -5 -7 -21 -12 -35 -15
-39 -28 -586 -14 -608 4 -6 4 -12 -1 -12 -9 0 -9 -1440 0 -1545 4 -38 11 -85
16 -103 24 -81 113 -183 182 -208 54 -19 165 -14 201 10 13 9 27 14 30 11 10
-10 103 82 124 122 l21 40 -1 1154 c-2 1066 -3 1157 -19 1189 -31 65 -93 120
-157 139 -78 24 -160 23 -216 -3z"/>
<path d="M5188 6263 c-57 -32 -85 -59 -114 -110 -28 -46 -32 -64 -40 -143 -11
-109 -10 -2155 1 -2167 5 -6 25 -39 44 -72 57 -101 129 -140 248 -135 52 2 75
9 116 34 58 36 130 120 142 165 6 25 17 196 15 255 -1 58 1 104 4 108 2 2 0
17 -4 33 -5 16 -5 31 -2 33 6 4 7 103 2 131 -1 6 -1 15 0 20 5 22 1 166 -5
175 -3 6 -2 10 2 10 9 0 8 102 -1 126 -3 8 -1 14 3 14 5 0 5 16 1 35 -4 19 -5
35 -1 35 6 0 7 38 1 65 -1 6 -1 12 0 15 6 15 4 160 -2 160 -4 0 -3 11 2 25 6
15 6 25 0 25 -5 0 -5 12 0 30 5 17 5 30 0 30 -4 0 -5 12 -1 28 4 15 5 41 1 57
-6 27 -6 73 0 100 1 6 2 12 1 15 -1 3 -4 167 -6 364 -4 412 -2 398 -85 482
-51 52 -85 66 -170 71 -41 2 -82 5 -92 7 -9 2 -36 -7 -60 -21z"/>
<path d="M3088 6030 c-62 -11 -117 -55 -166 -132 l-29 -48 1 -877 c1 -483 5
-891 9 -908 15 -58 85 -136 146 -162 64 -27 216 -16 271 21 40 26 100 86 100
98 0 5 10 30 22 56 21 45 22 63 25 372 2 179 5 335 7 348 2 12 0 22 -3 22 -3
0 -6 219 -6 488 l0 487 -24 50 c-60 130 -130 183 -247 188 -38 2 -85 0 -106
-3z"/>
<path d="M216 5829 c-74 -22 -109 -50 -158 -122 l-42 -62 0 -682 c0 -589 2
-685 15 -700 8 -10 21 -31 29 -47 21 -41 65 -83 114 -108 60 -31 201 -33 259
-4 51 25 109 76 128 114 8 15 19 32 25 39 7 8 11 218 11 700 l0 688 -32 50
c-31 49 -81 99 -121 121 -54 31 -154 37 -228 13z"/>
<path d="M8879 5766 c-2 -2 -20 -6 -40 -9 -88 -11 -161 -72 -209 -174 l-32
-67 0 -556 0 -557 30 -64 c55 -118 125 -168 244 -173 112 -5 163 12 220 73 81
86 75 34 75 721 0 499 -3 619 -14 636 -7 11 -11 23 -8 26 8 7 -84 97 -116 114
-16 8 -52 17 -81 20 -29 3 -56 8 -59 10 -3 2 -8 2 -10 0z"/>
<path d="M5990 5520 c-7 -4 -21 -7 -31 -5 -10 2 -23 -3 -30 -11 -6 -8 -17 -14
-25 -14 -20 0 -124 -111 -130 -140 -3 -14 -10 -36 -16 -50 -15 -36 -19 -117
-18 -365 0 -249 1 -260 29 -344 15 -46 33 -74 70 -111 28 -28 57 -50 65 -50 7
0 26 -6 40 -14 18 -9 52 -13 99 -11 117 6 210 69 241 165 20 61 26 130 31 372
3 114 5 210 6 215 1 4 0 10 -1 13 -1 3 -3 30 -5 60 -10 160 -107 272 -249 286
-27 3 -52 7 -56 9 -3 2 -12 0 -20 -5z"/>
<path d="M9520 5479 c-32 -7 -51 -20 -111 -79 -46 -45 -70 -91 -75 -144 -2
-22 -6 -149 -8 -281 -5 -296 6 -374 63 -433 62 -66 104 -91 157 -97 136 -15
186 -3 248 61 86 88 97 140 96 459 0 210 -5 298 -17 335 -27 83 -112 168 -175
176 -61 8 -147 9 -178 3z"/>
</g>
</svg>
