<svg width="35" height="24" viewBox="0 0 35 24" fill="none" xmlns="http://www.w3.org/2000/svg">
<path d="M3.35801 0.136264C2.88555 0.264389 2.16484 0.62474 1.79648 0.913022L1.57227 1.0972L9.44395 7.66361C13.7682 11.2671 17.3557 14.23 17.4117 14.246C17.4678 14.262 21.0713 11.3072 25.4115 7.68763L33.3152 1.0972L33.091 0.905014C32.7467 0.62474 31.9939 0.264389 31.4814 0.128256C30.8008 -0.0479157 4.01465 -0.0399079 3.35801 0.136264Z" fill="#F1F1F1"/>
<path d="M0.203009 3.24346C0.0108213 3.73994 -0.02121 5.1253 0.0108213 12.2202C0.0348447 18.9708 0.0508604 19.7956 0.170978 20.188C0.56336 21.4853 1.41219 22.5103 2.55731 23.0548C2.92567 23.231 3.44617 23.4151 3.70242 23.4632C4.03074 23.5272 8.38699 23.5513 17.4759 23.5513C28.7108 23.5513 30.8649 23.5272 31.3214 23.4312C32.8909 23.1028 34.2682 21.7896 34.7167 20.188C34.8528 19.6995 34.8608 19.171 34.8608 11.8599C34.8608 4.5167 34.8368 3.4917 34.6686 3.21944C34.6126 3.13936 32.5145 4.84502 26.2044 10.1062C21.5839 13.9579 17.7241 17.169 17.628 17.2491L17.4438 17.3933L8.9075 10.2823C4.21492 6.37451 0.347149 3.16338 0.30711 3.14737C0.275079 3.13135 0.227032 3.1794 0.203009 3.24346Z" fill="#F1F1F1"/>
</svg>
