<svg width="17" height="14" viewBox="0 0 17 14" fill="none" xmlns="http://www.w3.org/2000/svg">
<path d="M0.5 3.75C0.223858 3.75 0 3.97386 0 4.25V9.5C0 9.77614 0.223858 10 0.5 10H2.98651C3.07713 10 3.16605 10.0246 3.24376 10.0713L8.61775 13.2957C8.95102 13.4956 9.375 13.2556 9.375 12.8669V0.883095C9.375 0.494448 8.95101 0.254391 8.61775 0.454349L3.24376 3.67875C3.16605 3.72537 3.07713 3.75 2.98651 3.75H0.5ZM7.36774 2.6619C7.701 2.46192 8.125 2.70198 8.125 3.09064V10.6588C8.125 11.0475 7.70104 11.2875 7.36778 11.0876L3.59 8.82124C3.51229 8.77462 3.42339 8.75 3.33277 8.75H1.75C1.47386 8.75 1.25 8.52614 1.25 8.25V5.5C1.25 5.22386 1.47386 5 1.75 5H3.33275C3.42338 5 3.5123 4.97537 3.59001 4.92874L7.36774 2.6619Z" fill="#333333"/>
<path d="M10.3536 4.85355C10.1583 4.65829 10.1583 4.34171 10.3536 4.14645L10.6464 3.85355C10.8417 3.65829 11.1583 3.65829 11.3536 3.85355L13.5 6L14.5 7L16.6464 9.14645C16.8417 9.34171 16.8417 9.65829 16.6464 9.85355L16.3536 10.1464C16.1583 10.3417 15.8417 10.3417 15.6464 10.1464L13.5 8L12.5 7L10.3536 4.85355Z" fill="#333333"/>
<path d="M13.5 8L12.5 7L10.3536 9.14645C10.1583 9.34171 10.1583 9.65829 10.3536 9.85355L10.6464 10.1464C10.8417 10.3417 11.1583 10.3417 11.3536 10.1464L13.5 8Z" fill="#333333"/>
<path d="M13.5 6L14.5 7L16.6464 4.85355C16.8417 4.65829 16.8417 4.34171 16.6464 4.14645L16.3536 3.85355C16.1583 3.65829 15.8417 3.65829 15.6464 3.85355L13.5 6Z" fill="#333333"/>
</svg>
