<?xml version="1.0" encoding="utf-8"?><svg viewBox="0 0 330 330" xmlns="http://www.w3.org/2000/svg" xmlns:xlink="http://www.w3.org/1999/xlink"><style>:root>svg{display:none}:root>svg:target{display:block}</style><svg viewBox="0 0 330 330" id="arrow" xmlns="http://www.w3.org/2000/svg"><path d="M325.606 229.393l-150.004-150a14.997 14.997 0 00-21.213.001l-149.996 150c-5.858 5.858-5.858 15.355 0 21.213 5.857 5.857 15.355 5.858 21.213 0l139.39-139.393 139.397 139.393A14.953 14.953 0 00315 255a14.95 14.95 0 0010.607-4.394c5.857-5.858 5.857-15.355-.001-21.213z"/></svg><svg viewBox="0 0 310 310" id="facebook" xmlns="http://www.w3.org/2000/svg"><path d="M81.703 165.106h33.981V305a5 5 0 005 5H178.3a5 5 0 005-5V165.765h39.064a5 5 0 004.967-4.429l5.933-51.502a5 5 0 00-4.966-5.572h-44.996V71.978c0-9.732 5.24-14.667 15.576-14.667h29.42a5 5 0 005-5V5.037a5 5 0 00-5-5h-40.545A39.746 39.746 0 00185.896 0c-7.035 0-31.488 1.381-50.804 19.151-21.402 19.692-18.427 43.27-17.716 47.358v37.752H81.703a5 5 0 00-5 5v50.844a5 5 0 005 5.001z"/></svg><svg viewBox="0 0 35 24" id="mail" xmlns="http://www.w3.org/2000/svg"><path d="M3.358.136c-.472.128-1.193.489-1.562.777l-.224.184 7.872 6.567c4.324 3.603 7.912 6.566 7.968 6.582.056.016 3.66-2.939 8-6.558l7.903-6.59-.224-.193c-.344-.28-1.097-.64-1.61-.777-.68-.176-27.466-.168-28.123.008z"/><path d="M.203 3.243C.011 3.74-.021 5.125.011 12.22c.024 6.75.04 7.576.16 7.968.392 1.297 1.241 2.322 2.386 2.867.369.176.89.36 1.145.408.329.064 4.685.088 13.774.088 11.235 0 13.389-.024 13.845-.12 1.57-.328 2.947-1.641 3.396-3.243.136-.488.144-1.017.144-8.328 0-7.343-.024-8.368-.192-8.64-.056-.08-2.154 1.625-8.465 6.886-4.62 3.852-8.48 7.063-8.576 7.143l-.184.144-8.536-7.11C4.215 6.374.348 3.162.308 3.146c-.033-.016-.081.032-.105.096z"/></svg><svg viewBox="0 0 24 24" id="pause" xmlns="http://www.w3.org/2000/svg"><path d="M16 2a3 3 0 00-3 3v14a3 3 0 006 0V5a3 3 0 00-3-3zm1 17a1 1 0 01-2 0V5a1 1 0 012 0zM8 2a3 3 0 00-3 3v14a3 3 0 006 0V5a3 3 0 00-3-3zm1 17a1 1 0 01-2 0V5a1 1 0 012 0z"/></svg><svg viewBox="0 0 24 24" id="play" xmlns="http://www.w3.org/2000/svg"><path d="M18.54 9L8.88 3.46a3.42 3.42 0 00-5.13 3v11.12A3.42 3.42 0 007.17 21a3.43 3.43 0 001.71-.46L18.54 15a3.42 3.42 0 000-5.92zm-1 4.19l-9.66 5.62a1.44 1.44 0 01-1.42 0 1.42 1.42 0 01-.71-1.23V6.42a1.42 1.42 0 01.71-1.23A1.51 1.51 0 017.17 5a1.54 1.54 0 01.71.19l9.66 5.58a1.42 1.42 0 010 2.46z"/></svg><svg viewBox="0 0 17 14" id="sound-mute" xmlns="http://www.w3.org/2000/svg"><path d="M.5 3.75a.5.5 0 00-.5.5V9.5a.5.5 0 00.5.5h2.487a.5.5 0 01.257.071l5.374 3.225a.5.5 0 00.757-.43V.884a.5.5 0 00-.757-.429L3.244 3.68a.5.5 0 01-.257.071H.5zm6.868-1.088a.5.5 0 01.757.429v7.568a.5.5 0 01-.757.429L3.59 8.82a.5.5 0 00-.257-.071H1.75a.5.5 0 01-.5-.5V5.5a.5.5 0 01.5-.5h1.583a.5.5 0 00.257-.071l3.778-2.267zm2.986 2.192a.5.5 0 010-.708l.292-.292a.5.5 0 01.708 0L13.5 6l1 1 2.146 2.146a.5.5 0 010 .708l-.292.292a.5.5 0 01-.708 0L13.5 8l-1-1-2.146-2.146z"/><path d="M13.5 8l-1-1-2.146 2.146a.5.5 0 000 .708l.292.292a.5.5 0 00.708 0L13.5 8zm0-2l1 1 2.146-2.146a.5.5 0 000-.708l-.292-.292a.5.5 0 00-.708 0L13.5 6z"/></svg><svg viewBox="0 0 16 13" id="sound-nonmute" xmlns="http://www.w3.org/2000/svg"><path d="M1.1 3.375a.5.5 0 00-.5.5v5.25a.5.5 0 00.5.5h2.487a.5.5 0 01.257.071l5.374 3.225a.5.5 0 00.757-.43V.509A.5.5 0 009.218.08L3.844 3.304a.5.5 0 01-.257.071H1.1zm6.868-1.088a.5.5 0 01.757.429v7.568a.5.5 0 01-.757.429L4.19 8.446a.5.5 0 00-.257-.071H2.35a.5.5 0 01-.5-.5v-2.75a.5.5 0 01.5-.5h1.583a.5.5 0 00.257-.071l3.778-2.267zm4.003 7.378c-.175.214-.494.212-.689.017l-.177-.177c-.195-.195-.191-.51-.024-.73a3.76 3.76 0 000-4.55c-.167-.22-.17-.535.024-.73l.177-.177a.465.465 0 01.69.017 5.011 5.011 0 010 6.33zm1.774 1.773a.476.476 0 01-.695.012l-.177-.177a.533.533 0 01-.014-.721 6.261 6.261 0 000-8.105.533.533 0 01.014-.72l.177-.177a.476.476 0 01.695.012 7.512 7.512 0 010 9.876z"/></svg></svg>